<svg xmlns="http://www.w3.org/2000/svg" width="100%" height="100%" viewBox="0 0 54.7 43.6" fill="white">
    <path d="M33.1 43.6v-1.3c5.9-.1 11.4-2.6 15.3-7 7.4-8.5 6.5-21.5-2-28.9s-21.5-6.5-28.9 2l-1-.9c7.9-9.1 21.7-10 30.7-2.2 9.1 7.9 10 21.7 2.2 30.7-4.1 4.8-10 7.5-16.3 7.6M4.5 20.3v2.6h-3v-2.6H.3v6.4h1.2v-2.8h3v2.8h1.1v-6.4zm6.6 6.4h-1V26c-.2.4-.6.8-1.3.8-1.2 0-1.6-.8-1.6-1.7v-2.7h1.1v2.2c0 .5 0 1.3.8 1.3.7 0 1-.5 1-1.1v-2.4h1.1v4.3h-.1zm1.4-4.3h1v.7c.2-.4.6-.8 1.3-.8s1.1.3 1.4.8c.3-.6.8-.8 1.4-.8 1.2 0 1.6.8 1.6 1.9v2.6h-1.1v-2.5c0-.5-.2-1-.8-1-.7 0-.9.6-.9 1.1v2.4h-1.1v-2.6c0-.5-.2-.9-.7-.9-.7 0-1 .5-1 1.1v2.4h-1.1v-4.4z"></path>
    <path d="M23.2 24.8H23c-.6 0-1.6 0-1.6.7 0 .4.4.6.8.6.7 0 1.1-.4 1.1-1l-.1-.3zm.1 1.3c-.3.5-.8.7-1.4.7-.8 0-1.6-.4-1.6-1.3 0-1.4 1.6-1.5 2.7-1.5h.3v-.1c0-.5-.4-.8-1-.8-.5 0-.9.2-1.2.5l-.6-.6c.5-.5 1.2-.7 1.8-.7 1.9 0 1.9 1.3 1.9 2v2.5h-1v-.7h.1zm2.3-3.7h1v.7c.2-.4.6-.8 1.3-.8 1.2 0 1.6.8 1.6 1.7v2.7h-1.1v-2.2c0-.5 0-1.3-.8-1.3-.7 0-1 .5-1 1.1v2.4h-1.1v-4.3h.1zm5.4 0h1.1v4.3H31v-4.3zm.5-2.1c.4 0 .7.3.7.7 0 .4-.3.7-.7.7-.4 0-.7-.3-.7-.7 0-.4.3-.7.7-.7m1.5 3v-.9h.9v-1.3H35v1.3h1.2v.9H35v1.9c0 .4.1.7.6.7.2 0 .5 0 .6-.1v.9c-.2.1-.6.1-.9.1-1.1 0-1.4-.5-1.4-1.5v-2H33zm4.2-.9h1.1v4.3h-1.1v-4.3zm.5-2.1c.4 0 .7.3.7.7 0 .4-.3.7-.7.7s-.7-.3-.7-.7.3-.7.7-.7m5.1 3.8c0-.6-.4-1-1.1-1-.6 0-1 .4-1.1 1h2.2zm-2.2.8c.1.6.6 1 1.2 1 .5 0 .9-.3 1.2-.6l.8.6c-.5.6-1.1.9-1.8.9-1.3 0-2.4-.9-2.4-2.3s1-2.3 2.4-2.3c1.2 0 2 .9 2 2.4v.3h-3.4zm6.8-1.3c-.2-.3-.5-.4-.9-.4-.3 0-.6.1-.6.5 0 .8 2.3.1 2.3 1.8 0 1-1 1.4-1.9 1.4-.7 0-1.2-.2-1.7-.7l.7-.7c.3.3.6.5 1 .5.3 0 .7-.2.7-.5 0-.9-2.3-.2-2.3-1.8 0-1 .9-1.4 1.7-1.4.6 0 1.2.2 1.5.7l-.5.6zM4.5 20.3v2.6h-3v-2.6H.3v6.4h1.2v-2.8h3v2.8h1.1v-6.4zm6.6 6.4h-1V26c-.2.4-.6.8-1.3.8-1.2 0-1.6-.8-1.6-1.7v-2.7h1.1v2.2c0 .5 0 1.3.8 1.3.7 0 1-.5 1-1.1v-2.4h1.1v4.3h-.1zm1.4-4.3h1v.7c.2-.4.6-.8 1.3-.8s1.1.3 1.4.8c.3-.6.8-.8 1.4-.8 1.2 0 1.6.8 1.6 1.9v2.6h-1.1v-2.5c0-.5-.2-1-.8-1-.7 0-.9.6-.9 1.1v2.4h-1.1v-2.6c0-.5-.2-.9-.7-.9-.7 0-1 .5-1 1.1v2.4h-1.1v-4.4z"></path>
    <path d="M23.2 24.8H23c-.6 0-1.6 0-1.6.7 0 .4.4.6.8.6.7 0 1.1-.4 1.1-1l-.1-.3zm.1 1.3c-.3.5-.8.7-1.4.7-.8 0-1.6-.4-1.6-1.3 0-1.4 1.6-1.5 2.7-1.5h.3v-.1c0-.5-.4-.8-1-.8-.5 0-.9.2-1.2.5l-.6-.6c.5-.5 1.2-.7 1.8-.7 1.9 0 1.9 1.3 1.9 2v2.5h-1v-.7h.1zm2.3-3.7h1v.7c.2-.4.6-.8 1.3-.8 1.2 0 1.6.8 1.6 1.7v2.7h-1.1v-2.2c0-.5 0-1.3-.8-1.3-.7 0-1 .5-1 1.1v2.4h-1.1v-4.3h.1zm5.4 0h1.1v4.3H31v-4.3zm.5-2.1c.4 0 .7.3.7.7 0 .4-.3.7-.7.7-.4 0-.7-.3-.7-.7 0-.4.3-.7.7-.7m1.5 3v-.9h.9v-1.3H35v1.3h1.2v.9H35v1.9c0 .4.1.7.6.7.2 0 .5 0 .6-.1v.9c-.2.1-.6.1-.9.1-1.1 0-1.4-.5-1.4-1.5v-2H33zm4.2-.9h1.1v4.3h-1.1v-4.3zm.5-2.1c.4 0 .7.3.7.7 0 .4-.3.7-.7.7s-.7-.3-.7-.7.3-.7.7-.7m5.1 3.8c0-.6-.4-1-1.1-1-.6 0-1 .4-1.1 1h2.2zm-2.2.8c.1.6.6 1 1.2 1 .5 0 .9-.3 1.2-.6l.8.6c-.5.6-1.1.9-1.8.9-1.3 0-2.4-.9-2.4-2.3s1-2.3 2.4-2.3c1.2 0 2 .9 2 2.4v.3h-3.4zm6.8-1.3c-.2-.3-.5-.4-.9-.4-.3 0-.6.1-.6.5 0 .8 2.3.1 2.3 1.8 0 1-1 1.4-1.9 1.4-.7 0-1.2-.2-1.7-.7l.7-.7c.3.3.6.5 1 .5.3 0 .7-.2.7-.5 0-.9-2.3-.2-2.3-1.8 0-1 .9-1.4 1.7-1.4.6 0 1.2.2 1.5.7l-.5.6zm-42.8-7c.1.2.2.3.3.4.1.1.1.2.2.2.1.1.1.1.2.1s.1.1.2.1v.3H3.2v-.3c.1 0 .2 0 .2-.1v-.2s0-.1-.1-.2c0-.1-.1-.2-.3-.5l-.6-1c-.1-.1-.1-.2-.2-.3-.1-.1-.1-.1-.2-.1h-.3v2.1c0 .1 0 .1.1.1l.1.1c.1 0 .1 0 .2.1v.3H0v-.3c.1 0 .2-.1.2-.1l.1-.1c0-.1 0-.1.1-.2v-4.1c0-.1 0-.2-.1-.2 0-.1-.1-.1-.1-.1-.1 0-.1-.1-.2-.1v-.3h2.2v.3c-.1 0-.2.1-.3.1-.1 0-.1.1-.1.1s0 .1-.1.2v1.8h.4c.1 0 .2-.1.2-.1l.5-.5c.2-.3.4-.5.5-.6s.2-.3.2-.3c0-.1.1-.2.1-.3s0-.2-.1-.2c-.1-.1-.2-.1-.3-.1v-.3h2.1v.3c-.1 0-.2 0-.3.1-.1 0-.2.1-.3.2l-.4.4-1.2 1.4 1.5 1.9zm6.9-4.5v.3c-.1 0-.2.1-.2.1l-.1.1s-.1.1-.1.2v5h-1l-1.8-3.2-.5-1v3.6c0 .1.1.1.1.2.1 0 .2.1.3.1v.3H6.5v-.3c.1 0 .2-.1.2-.1.1 0 .1-.1.1-.1 0-.1 0-.1.1-.2v-4.3c0-.1-.1-.1-.1-.2-.1-.1-.2-.1-.3-.1v-.3h1.7l1.5 2.5c.1.2.2.4.4.6.1.3.3.5.4.8h.1v-3.3c0-.1 0-.1-.1-.2l-.1-.1s-.1-.1-.2-.1v-.3h1.3zm2.7 3.4h1.5l-.7-2.3-.8 2.3zm1.6.4H14l-.1.4c0 .1-.1.2-.1.3v.3c0 .3.1.4.4.4v.3h-1.8v-.3c.1 0 .2 0 .3-.1l.2-.2c.1-.1.1-.3.2-.4l1.7-4.6h1.1l1.4 4.6c.1.2.1.4.2.4 0 .1.1.2.2.2.1.1.2.1.3.1v.3h-2.3v-.3c.1 0 .2-.1.3-.1v-.5c0-.1-.1-.2-.1-.4l-.1-.4zm9.2-2.4c0-.1.1-.3.1-.4v-.3c0-.1 0-.2-.1-.3s-.2-.1-.3-.1v-.3h1.7v.3c-.1 0-.2.1-.3.1l-.2.2c-.1.1-.1.3-.2.5l-1.5 4.5h-1l-.9-3.9-1.1 3.9h-1L19 13.1c-.1-.2-.1-.4-.2-.5 0-.1-.1-.2-.2-.2s-.1-.1-.2-.1V12h2.2v.3c-.1 0-.2.1-.3.1-.1.1-.1.2-.1.3s0 .4.1.7l.7 2.9 1.2-4.2h.9l1 4.2.9-2.8zM4.7 30.9c-.5-.5-.9-.6-1.3-.6-1.3 0-2.2 1-2.2 2.3 0 1.4.9 2.4 2.2 2.4.5 0 1-.2 1.4-.8l.9.7c-.6.8-1.4 1.1-2.4 1.1-2 0-3.4-1.3-3.4-3.3 0-2.1 1.4-3.4 3.4-3.4.9 0 1.6.3 2.2 1l-.8.6zm1.9-2h1.1v6.8H6.6zm6.5 6.9h-1v-.7c-.2.4-.6.8-1.3.8-1.2 0-1.6-.8-1.6-1.7v-2.7h1.1v2.2c0 .5 0 1.3.8 1.3.7 0 1-.5 1-1.1v-2.4h1.1v4.3h-.1zm3.7-3.2c-.2-.3-.5-.4-.8-.4s-.6.1-.6.5c0 .8 2.3.1 2.3 1.8 0 1-1 1.4-1.9 1.4-.7 0-1.2-.2-1.7-.7l.7-.7c.3.3.6.5 1 .5.3 0 .7-.2.7-.5 0-.9-2.3-.2-2.3-1.8 0-1 .9-1.4 1.7-1.4.6 0 1.2.2 1.5.7l-.6.6zm1.4-.2v-.9h.9v-1.3h1.1v1.3h1.2v.9h-1.2v1.9c0 .4.1.7.6.7.2 0 .5 0 .6-.1v.9c-.2.1-.6.1-.9.1-1.1 0-1.4-.5-1.4-1.5v-2h-.9zm7.3.8c0-.6-.4-1-1.1-1-.6 0-1 .4-1.1 1h2.2zm-2.2.8c.1.6.6 1 1.2 1 .5 0 .9-.3 1.2-.6l.8.6c-.5.6-1.1.9-1.8.9-1.3 0-2.4-.9-2.4-2.3s1-2.3 2.4-2.3c1.2 0 2 .9 2 2.4v.3h-3.4zm4.5-2.6h1.1v.7c.2-.5.7-.8 1.3-.8.1 0 .3 0 .4.1v1c-.2 0-.4-.1-.5-.1-1 0-1.2.9-1.2 1.1v2.3h-1.1v-4.3z"></path>
</svg>